HIERARCHY
ROOT Hips
{
	OFFSET 0.00000 0.00000 0.00000
	CHANNELS 6 Xposition Yposition Zposition Yrotation Zrotation Xrotation 
	JOINT Lumbar
	{
		OFFSET 0 0 0
		CHANNELS 3 Zrotation Xrotation Yrotation
		JOINT Neck
		{
			OFFSET 0.00 0.2701 0.00
			CHANNELS 3 Zrotation Xrotation Yrotation
			End Site
			{
				OFFSET 0.00 0.1379 0.00
			}
		}
		JOINT RightShoulder
		{
			OFFSET 0.0119 0.2289 0.1181
			CHANNELS 3 Zrotation Xrotation Yrotation
			JOINT RightElbow
			{
				OFFSET 0.00 -0.1475 0.00
				CHANNELS 2 Zrotation Yrotation
				JOINT RightWrist
				{
					OFFSET 0.00 -0.1605 0.00
					CHANNELS 2 Zrotation Xrotation
					End Site
					{
						OFFSET 0.0040 -0.1068 0.0006
					}
				}
			}
		}
		JOINT LeftShoulder
		{
			OFFSET 0.0119 0.2289 -0.1181
			CHANNELS 3 Zrotation Xrotation Yrotation
			JOINT LeftElbow
			{
				OFFSET 0.00 -0.1475 0.00
				CHANNELS 2 Zrotation Yrotation
				JOINT LeftWrist
				{
					OFFSET 0.00 -0.1605 0.00
					CHANNELS 2 Zrotation Xrotation
					End Site
					{
						OFFSET 0.0040 -0.1068 -0.0006
					}
				}
			}
		}
	}
	JOINT RightHip
	{
		OFFSET 0.0316 -0.0424 0.0458
		CHANNELS 3 Zrotation Xrotation Yrotation
		JOINT RightKnee
		{
			OFFSET 0.00 -0.2438 0.00
			CHANNELS 1 Zrotation
			JOINT RightAnkle
			{
				OFFSET 0.00 -0.2449 0.00
				CHANNELS 3 Zrotation Xrotation Yrotation
				End Site
				{
					OFFSET 0.1237 -0.0542 0.0051
				}
			}
		}
	}
	JOINT LeftHip
	{
		OFFSET 0.0316 -0.0424 -0.0458
		CHANNELS 3 Zrotation Xrotation Yrotation
		JOINT LeftKnee
		{
			OFFSET 0.00 -0.2438 0.00
			CHANNELS 1 Zrotation
			JOINT LeftAnkle
			{
				OFFSET 0.00 -0.2449 0.00
				CHANNELS 3 Zrotation Xrotation Yrotation
				End Site
				{
					OFFSET 0.1237 -0.0542 -0.0051
				}
			}
		}
	}
}
MOTION
Frames: 25
Frame Time: 0.02
0.00466 -0.00292 0.00925 24.44621 -34.44308 -3.373 54.11533 0.20276 2.33854 -9.7103 -0.57795 -2.11994 -34.64595 -7.35118 4.58166 132.77134 113.18138 -40.67012 -6.87189 -30.2737 9.64081 -2.7302 97.68731 -81.16212 -11.9963 2.82708 46.22081 -8.76807 -4.44846 -26.8595 -6.84917 -2.82318 -3.61157 51.52869 5.52723 4.92562 -25.00374 -7.27182 2.31676 3.38954
0.00287 -0.00344 0.00626 24.21442 -34.09301 -3.29595 53.68391 0.20334 2.25109 -10.04032 -0.54154 -2.11994 -34.10903 -7.31127 4.70014 132.53643 110.42842 -39.27364 -6.59676 -30.16645 9.87794 -3.08349 97.7172 -81.03146 -12.21281 2.28309 46.81125 -9.37598 -4.46977 -28.35071 -6.86824 -2.72785 -3.56514 51.13709 4.89972 3.86588 -25.12118 -7.26927 2.485 3.47057
0.00091 -0.00407 0.00327 24.04793 -33.69991 -3.20013 53.16149 0.19101 2.15749 -10.32629 -0.53489 -2.11994 -33.81041 -7.30782 4.82978 132.31164 107.62079 -37.7159 -6.28346 -29.90426 10.19372 -3.55505 97.69259 -80.89729 -12.46156 1.62616 47.52503 -10.02335 -4.41608 -30.11981 -6.89826 -2.62954 -3.5177 50.71481 4.21507 2.66086 -25.25397 -7.28041 2.65707 3.55611
-0.00098 -0.00465 0.00032 23.84823 -33.31858 -3.11602 52.67052 0.18335 2.05673 -10.62636 -0.51347 -2.11994 -33.4078 -7.29647 4.96889 132.07074 104.82324 -36.25889 -5.98619 -29.71729 10.48618 -3.9803 97.70295 -80.65835 -12.71737 1.03029 48.19856 -10.64474 -4.38745 -31.78929 -6.92563 -2.53119 -3.47028 50.30274 3.57442 1.57519 -25.37975 -7.28325 2.82242 3.63697
-0.00285 -0.00524 -0.00279 23.66201 -32.96717 -3.01718 52.21838 0.18027 1.99856 -10.94957 -0.49539 -2.11994 -32.96368 -7.2547 5.05682 131.87569 102.06979 -34.67578 -5.70029 -29.50551 10.72806 -4.37876 97.67138 -80.83655 -12.88623 0.38959 48.8102 -11.3068 -4.40747 -33.36231 -6.94327 -2.43638 -3.42356 49.90419 2.85466 0.2593 -25.50661 -7.29434 3.0101 3.72942
-0.00478 -0.00583 -0.00556 23.46422 -32.54647 -2.94606 51.66691 0.16514 1.85046 -11.21507 -0.47836 -2.11994 -32.67383 -7.28235 5.24628 131.5885 99.21847 -33.3103 -5.37756 -29.30991 11.09437 -4.85946 97.71278 -80.18091 -13.23081 -0.18193 49.57548 -11.8888 -4.30881 -35.18526 -6.98286 -2.33485 -3.37576 49.47253 2.28848 -0.61017 -25.63384 -7.29183 3.15147 3.79853
-0.00689 -0.00645 -0.00747 23.21287 -31.9192 -2.94351 50.83903 0.11512 1.45018 -11.32889 -0.45455 -2.11994 -32.72325 -7.49548 5.76012 131.04517 96.12343 -32.71627 -4.98656 -29.20244 11.77057 -5.53622 97.98146 -76.93253 -14.19055 -0.54979 50.76756 -12.26633 -3.84432 -37.76041 -7.09171 -2.20997 -3.32325 48.939 2.14503 -0.20504 -25.76651 -7.24682 3.1665 3.80316
-0.00903 -0.00707 -0.00903 22.94884 -31.2289 -2.97162 49.91943 0.05422 0.96082 -11.38681 -0.43152 -2.11994 -32.92736 -7.77585 6.36605 130.40888 92.94091 -32.32507 -4.55574 -29.11641 12.57091 -6.29087 98.32335 -72.90046 -15.30089 -0.84132 52.10312 -12.55624 -3.27087 -40.55048 -7.22052 -2.07979 -3.27025 48.37688 2.16093 0.65337 -25.89741 -7.18804 3.13422 3.78392
-0.0111 -0.00766 -0.01072 22.69444 -30.58399 -2.9943 49.05732 0.0016 0.51518 -11.47281 -0.4099 -2.11994 -33.08302 -8.0228 6.89849 129.81527 89.78099 -31.75891 -4.12558 -29.01745 13.32425 -7.01121 98.62326 -69.41835 -16.25375 -1.15717 53.35196 -12.86874 -2.78262 -43.15915 -7.33261 -1.95579 -3.21883 47.83934 2.11448 1.30174 -26.02384 -7.1366 3.12174 3.77479
-0.01339 -0.00836 -0.01252 22.4259 -29.86548 -2.98152 48.12339 -0.06507 0.05423 -11.54658 -0.38162 -2.11994 -33.15685 -8.28324 7.56556 129.22077 86.65435 -31.53824 -3.76381 -28.92587 14.04318 -7.73329 98.95713 -65.11652 -17.58573 -1.51939 54.69816 -13.2563 -2.14309 -46.14012 -7.47643 -1.81538 -3.16142 47.25073 2.0246 1.96463 -26.17339 -7.0809 3.11638 3.76878
-0.01523 -0.00882 -0.01402 22.18304 -29.2876 -3.04874 47.32083 -0.10551 -0.39412 -11.63235 -0.36729 -2.11994 -33.43172 -8.53103 7.97321 128.60512 83.48467 -30.64575 -3.25557 -28.82677 14.85901 -8.46604 99.23951 -62.33761 -18.16065 -1.76716 55.87127 -13.46509 -1.79157 -48.3817 -7.55993 -1.70837 -3.11665 46.76346 2.06239 2.70354 -26.2738 -7.03083 3.08519 3.75071
-0.01584 -0.00862 -0.01477 22.01328 -29.09871 -3.34111 46.88392 -0.06556 -0.80064 -11.77202 -0.38893 -2.11994 -34.25012 -8.72718 7.6492 127.96194 79.81238 -27.87472 -2.31013 -28.6964 15.93848 -9.23092 99.35167 -63.93973 -16.63453 -1.70143 56.55392 -13.21081 -2.2804 -48.62624 -7.4619 -1.69111 -3.10468 46.55122 2.42615 3.57127 -26.24202 -6.99785 2.99155 3.70379
-0.01597 -0.00817 -0.01521 21.86967 -29.05633 -3.71064 46.58651 0.00027 -1.18833 -11.92467 -0.4248 -2.11994 -35.2593 -8.90816 7.06072 127.3 76.16871 -24.41891 -1.22682 -28.55959 17.10526 -9.99899 99.41133 -67.10173 -14.33848 -1.52531 57.05245 -12.77804 -3.05992 -48.10136 -7.30425 -1.70818 -3.10578 46.444 2.91087 4.49527 -26.16031 -6.97127 2.87403 3.64579
-0.01628 -0.00782 -0.01579 21.71434 -28.95699 -4.03749 46.23847 0.05081 -1.57532 -12.06685 -0.45569 -2.11994 -36.16298 -9.09598 6.58698 126.64016 72.78694 -21.25732 -0.23459 -28.42984 18.21506 -10.75098 99.50235 -69.56374 -12.37476 -1.41008 57.61994 -12.42035 -3.69436 -47.86138 -7.18056 -1.71234 -3.10251 46.297 3.33239 5.37445 -26.09927 -6.94295 2.76916 3.59373
-0.01678 -0.00751 -0.01639 21.55783 -28.81551 -4.39837 45.83316 0.11574 -2.00573 -12.22604 -0.48074 -2.11994 -37.15221 -9.28621 6.13456 126.00059 68.27049 -18.16475 0.87927 -28.2829 19.40468 -11.56834 99.56555 -71.97252 -10.48146 -1.24812 58.25509 -12.08381 -4.37893 -47.89556 -7.02887 -1.70585 -3.09302 46.1167 3.79421 6.34971 -26.04632 -6.90932 2.65499 3.53698
-0.01676 -0.00707 -0.01686 21.41025 -28.79653 -4.70525 45.58161 0.15713 -2.33851 -12.35402 -0.52084 -2.11994 -38.00571 -9.46717 5.5799 125.32013 66.08893 -14.77528 1.77176 -28.17043 20.44414 -12.24824 99.67161 -74.85814 -8.26802 -1.15686 58.70312 -11.66362 -5.03054 -47.18191 -6.92071 -1.72861 -3.09906 46.02945 4.19869 7.13348 -25.96516 -6.8883 2.55523 3.48773
-0.01549 -0.00636 -0.01704 21.28005 -29.08779 -4.85307 45.7202 0.12635 -2.41906 -12.38953 -0.6029 -2.11994 -38.4431 -9.62373 4.75322 124.49182 70.66351 -10.63064 2.02028 -28.15118 21.07136 -12.55483 99.92291 -78.80969 -5.26031 -1.30021 58.68296 -11.0416 -5.51008 -44.51489 -6.95044 -1.83406 -3.14973 46.18744 4.41507 7.36194 -25.81433 -6.90204 2.5005 3.46165
-0.01371 -0.00554 -0.01709 21.15812 -29.49599 -4.94216 46.00921 0.07137 -2.39918 -12.39402 -0.69882 -2.11994 -38.73517 -9.77154 3.84185 123.63032 77.52909 -6.23037 2.04034 -28.16758 21.53859 -12.72047 100.21614 -83.16713 -1.97455 -1.51667 58.47925 -10.34441 -5.94728 -41.13573 -7.02529 -1.96616 -3.21479 46.43278 4.56888 7.39536 -25.63758 -6.92808 2.4615 3.4437
-0.01212 -0.00478 -0.01719 21.03312 -29.84599 -5.052 46.23008 0.02786 -2.41644 -12.41508 -0.78588 -2.11994 -39.08987 -9.92473 3.00527 122.81108 83.13829 -2.01192 2.16483 -28.16964 22.06382 -12.9466 100.48067 -87.25647 1.11983 -1.69181 58.35679 -9.69202 -6.4129 -38.13074 -7.07743 -2.07893 -3.26985 46.62931 4.75059 7.52484 -25.47533 -6.94752 2.41586 3.42228
-0.01068 -0.00398 -0.01734 20.90633 -30.22296 -5.18919 46.45499 -0.01745 -2.46895 -12.42624 -0.88444 -2.11994 -39.46713 -10.07175 2.00882 121.87859 89.65416 2.51285 2.29385 -28.16289 22.65746 -13.19111 100.78431 -91.75152 4.515 -1.89687 58.23795 -8.98972 -6.85618 -34.88263 -7.13706 -2.22216 -3.3394 46.86874 4.93865 7.62734 -25.29989 -6.97126 2.36699 3.3994
-0.00882 -0.00325 -0.01734 20.78465 -30.56891 -5.25501 46.7052 -0.0642 -2.42446 -12.45032 -0.9619 -2.11994 -39.75862 -10.22943 1.32549 121.17161 94.8289 6.4446 2.35456 -28.18399 23.06546 -13.35986 101.01688 -95.47938 7.34027 -2.05886 58.06934 -8.37426 -7.32421 -31.98563 -7.19227 -2.30936 -3.38272 47.03722 5.09732 7.7363 -25.14639 -6.98911 2.32917 3.38178
-0.006 -0.00273 -0.01701 20.67697 -30.80613 -5.13316 46.98979 -0.1168 -2.13672 -12.5192 -0.9799 -2.11994 -39.86217 -10.4205 1.55557 121.1187 95.7103 8.73171 2.30676 -28.26538 23.03362 -13.38733 101.04559 -96.96852 8.5154 -2.08088 57.81733 -8.0318 -7.93933 -30.2032 -7.22706 -2.22181 -3.34398 46.99636 5.18722 7.93282 -25.06057 -6.98585 2.31584 3.37556
-0.00277 -0.00229 -0.01654 20.57374 -31.00627 -4.94221 47.29366 -0.16869 -1.75535 -12.60175 -0.97569 -2.11994 -39.88064 -10.62177 2.0993 121.28905 95.16982 10.39994 2.19367 -28.37517 22.81386 -13.33708 101.00145 -97.66805 9.10545 -2.05817 57.52067 -7.7776 -8.56777 -28.80809 -7.25561 -2.07912 -3.27933 46.87914 5.24997 8.1385 -24.99807 -6.97658 2.31356 3.3746
0.00029 -0.00181 -0.01612 20.467 -31.21914 -4.78558 47.5872 -0.21595 -1.41632 -12.67707 -0.98017 -2.11994 -39.92876 -10.81794 2.48299 121.34282 95.29761 12.31097 2.09291 -28.47706 22.65741 -13.30056 100.98869 -98.73456 9.96461 -2.05855 57.23953 -7.47406 -9.14226 -27.25854 -7.28547 -1.97063 -3.23059 46.79105 5.32602 8.32477 -24.92437 -6.97124 2.30786 3.37208
0.00329 -0.00135 -0.01576 20.36652 -31.45389 -4.61402 47.89292 -0.28498 -1.07279 -12.75588 -0.99117 -2.11994 -40.01131 -11.018 2.93944 121.46174 95.40592 14.39141 2.05427 -28.55868 22.58812 -13.35061 100.98315 -99.78044 10.81904 -2.04975 56.97245 -7.20626 -9.91277 -25.59215 -7.3233 -1.82532 -3.16525 46.72933 5.39453 8.56713 -24.85134 -6.96124 2.29619 3.36644
